<?xml version="1.0" encoding="UTF-8"?>
<svg version="1.1" xmlns="http://www.w3.org/2000/svg" width="734" height="518">
<path d="M0 0 C1.80238129 0.04737305 1.80238129 0.04737305 3.64117432 0.09570312 C196.90318024 5.18425311 196.90318024 5.18425311 231.76171875 41.48828125 C237.31544051 47.72046814 241.4045529 54.47251224 245.1875 61.875 C245.66920654 62.81013428 245.66920654 62.81013428 246.16064453 63.76416016 C250.86591875 73.3035869 253.56717357 83.39333184 255.5 93.8125 C255.70866699 94.9272168 255.91733398 96.04193359 256.13232422 97.19042969 C260.77596133 122.77464206 263.1512687 148.59595076 264.83856201 174.51971436 C264.94458392 176.14860369 265.05216011 177.77739275 265.16143799 179.40606689 C268.6979131 232.29878594 268.54845051 286.114001 265 339 C264.89176289 340.66292308 264.78352723 342.32584626 264.67529297 343.98876953 C257.96056064 445.43185491 257.96056064 445.43185491 231 475 C230.32582031 475.76699219 229.65164063 476.53398437 228.95703125 477.32421875 C185.10452819 524.46771641 86.59310534 513.12725142 27.16578674 515.29309082 C19.63893283 515.55796727 12.11090361 515.74868691 4.58105469 515.90283203 C1.28197839 515.97075792 -2.01670787 516.04894734 -5.31542969 516.13232422 C-70.16318787 517.76086949 -135.15573655 517.75529188 -200 516 C-201.20158752 515.96841797 -202.40317505 515.93683594 -203.64117432 515.90429688 C-396.90318024 510.81574689 -396.90318024 510.81574689 -431.76171875 474.51171875 C-437.31544051 468.27953186 -441.4045529 461.52748776 -445.1875 454.125 C-445.66920654 453.18986572 -445.66920654 453.18986572 -446.16064453 452.23583984 C-450.86591875 442.6964131 -453.56717357 432.60666816 -455.5 422.1875 C-455.70866699 421.0727832 -455.91733398 419.95806641 -456.13232422 418.80957031 C-460.77596133 393.22535794 -463.1512687 367.40404924 -464.83856201 341.48028564 C-464.94458392 339.85139631 -465.05216011 338.22260725 -465.16143799 336.59393311 C-468.6979131 283.70121406 -468.54845051 229.885999 -465 177 C-464.89176289 175.33707692 -464.78352723 173.67415374 -464.67529297 172.01123047 C-457.96056064 70.56814509 -457.96056064 70.56814509 -431 41 C-430.32582031 40.23300781 -429.65164063 39.46601562 -428.95703125 38.67578125 C-385.10452819 -8.46771641 -286.59310534 2.87274858 -227.16578674 0.70690918 C-219.63893283 0.44203273 -212.11090361 0.25131309 -204.58105469 0.09716797 C-201.28197839 0.02924208 -197.98329213 -0.04894734 -194.68457031 -0.13232422 C-129.83681213 -1.76086949 -64.84426345 -1.75529188 0 0 Z M-175 150 C-175 221.28 -175 292.56 -175 366 C-166.3716464 361.6858232 -158.05389064 357.42066271 -149.8125 352.5 C-141.113651 347.36380062 -132.34687429 342.37665946 -123.5 337.5 C-114.93396899 332.7740821 -106.43221383 327.9607845 -98 323 C-88.44053137 317.37603639 -78.77705316 311.96344799 -69.06640625 306.60546875 C-60.65598678 301.95228135 -52.34661212 297.14619012 -44.06298828 292.27172852 C-36.56442097 287.87458842 -28.98697952 283.63477987 -21.375 279.4375 C-9.44219538 272.85705455 2.31765174 266.01442822 14 259 C12.70370192 255.11110575 11.3996439 254.833288 7.83984375 252.91796875 C6.74865234 252.32306641 5.65746094 251.72816406 4.53320312 251.11523438 C3.94804932 250.80158936 3.36289551 250.48794434 2.76000977 250.16479492 C-0.34891514 248.49767819 -3.44098048 246.79975461 -6.53515625 245.10546875 C-7.16676666 244.76063446 -7.79837708 244.41580017 -8.4491272 244.06051636 C-14.3670254 240.82106457 -20.1901217 237.42909441 -26 234 C-35.6322774 228.3328683 -45.36634046 222.86950509 -55.14672852 217.46264648 C-64.53067258 212.27240299 -73.85062391 206.97847903 -83.14892578 201.63671875 C-88.72030032 198.43835474 -94.29772033 195.25055133 -99.875 192.0625 C-100.47287323 191.72066681 -101.07074646 191.37883362 -101.68673706 191.02664185 C-110.52510704 185.97403612 -119.37875609 180.94914721 -128.24829102 175.95141602 C-133.61139657 172.92620657 -138.96158921 169.87964218 -144.30078125 166.8125 C-144.92503998 166.45426147 -145.54929871 166.09602295 -146.19247437 165.72692871 C-149.24218728 163.97680517 -152.29043847 162.22424305 -155.3359375 160.46679688 C-156.44839844 159.82806641 -157.56085938 159.18933594 -158.70703125 158.53125 C-159.6813208 157.96986328 -160.65561035 157.40847656 -161.65942383 156.83007812 C-166.04081436 154.42980747 -170.53163276 152.23418362 -175 150 Z " fill="#FFFFFF" transform="translate(467,1)"/>
</svg>
